<svg width="80" height="18" viewBox="0 0 80 18" fill="none" xmlns="http://www.w3.org/2000/svg">
<path d="M9.09585 17.3038L-0.00015226 12.0958V9.88782L9.09585 4.67982L10.5358 7.31982L2.23185 11.8078V10.1518L10.5358 14.6638L9.09585 17.3038ZM16.2332 11.5918L15.4892 8.35182C16.0172 8.22382 16.4972 8.07982 16.9292 7.91982C17.3772 7.74382 17.7772 7.55982 18.1292 7.36782C18.4812 7.17582 18.7772 6.95982 19.0172 6.71982C19.2732 6.47982 19.4652 6.21582 19.5932 5.92782C19.7372 5.62382 19.8092 5.30382 19.8092 4.96782C19.8092 4.61582 19.7132 4.30382 19.5212 4.03182C19.3292 3.74382 19.0732 3.52782 18.7532 3.38382C18.4332 3.22382 18.0572 3.14382 17.6252 3.14382C17.0652 3.14382 16.5052 3.34382 15.9452 3.74382C15.4012 4.12782 14.9052 4.73582 14.4572 5.56782L12.1052 3.43182C12.8252 2.34382 13.6732 1.50382 14.6492 0.911816C15.6412 0.303815 16.6732 -0.000185013 17.7452 -0.000185013C18.7852 -0.000185013 19.7212 0.215815 20.5532 0.647815C21.3852 1.06382 22.0412 1.63982 22.5212 2.37582C23.0172 3.11182 23.2652 3.93582 23.2652 4.84782C23.2652 5.42382 23.1452 5.99182 22.9052 6.55182C22.6652 7.09582 22.3292 7.61582 21.8972 8.11182C21.4812 8.59182 20.9852 9.01582 20.4092 9.38382C19.8332 9.75182 19.2012 10.0478 18.5132 10.2718L18.2252 11.5918H16.2332ZM15.3692 15.3358C15.3692 14.7438 15.5452 14.2638 15.8972 13.8958C16.2492 13.5118 16.7132 13.3198 17.2892 13.3198C17.9132 13.3198 18.3932 13.4958 18.7292 13.8478C19.0652 14.1998 19.2332 14.6958 19.2332 15.3358C19.2332 15.9438 19.0492 16.4398 18.6812 16.8238C18.3292 17.1918 17.8652 17.3758 17.2892 17.3758C16.6812 17.3758 16.2092 17.1998 15.8732 16.8478C15.5372 16.4958 15.3692 15.9918 15.3692 15.3358ZM25.7209 9.26382V6.45582H37.2649V9.26382H25.7209ZM25.7209 14.2558V11.4718H37.2649V14.2558H25.7209ZM40.9482 17.1118V0.311815H48.2442C49.3642 0.311815 50.3082 0.479815 51.0762 0.815816C51.8602 1.13582 52.4522 1.60782 52.8522 2.23182C53.2522 2.85582 53.4522 3.59982 53.4522 4.46382C53.4522 5.42382 53.2122 6.22382 52.7322 6.86382C52.2522 7.50382 51.5642 7.94382 50.6682 8.18382L50.6442 7.70382C51.3802 7.87982 52.0282 8.16782 52.5882 8.56782C53.1482 8.96782 53.5802 9.46382 53.8842 10.0558C54.1882 10.6478 54.3402 11.3198 54.3402 12.0718C54.3402 12.9038 54.2042 13.6398 53.9322 14.2798C53.6602 14.9038 53.2602 15.4238 52.7322 15.8398C52.2042 16.2558 51.5802 16.5758 50.8602 16.7998C50.1562 17.0078 49.3642 17.1118 48.4842 17.1118H40.9482ZM44.4042 13.9918H48.3402C48.8522 13.9918 49.2842 13.9198 49.6362 13.7758C50.0042 13.6158 50.2842 13.3758 50.4762 13.0558C50.6682 12.7358 50.7642 12.3598 50.7642 11.9278C50.7642 11.5118 50.6602 11.1598 50.4522 10.8718C50.2442 10.5838 49.9482 10.3678 49.5642 10.2238C49.1962 10.0638 48.7482 9.98382 48.2202 9.98382H44.4042V13.9918ZM44.4042 7.12782H47.8122C48.2442 7.12782 48.6202 7.04782 48.9402 6.88782C49.2602 6.72782 49.5002 6.51182 49.6602 6.23982C49.8362 5.96782 49.9242 5.64782 49.9242 5.27982C49.9242 4.68782 49.7322 4.23182 49.3482 3.91182C48.9642 3.59182 48.3882 3.43182 47.6202 3.43182H44.4042V7.12782ZM60.1082 11.5918L59.3642 8.35182C59.8922 8.22382 60.3722 8.07982 60.8042 7.91982C61.2522 7.74382 61.6522 7.55982 62.0042 7.36782C62.3562 7.17582 62.6522 6.95982 62.8922 6.71982C63.1482 6.47982 63.3402 6.21582 63.4682 5.92782C63.6122 5.62382 63.6842 5.30382 63.6842 4.96782C63.6842 4.61582 63.5882 4.30382 63.3962 4.03182C63.2042 3.74382 62.9482 3.52782 62.6282 3.38382C62.3082 3.22382 61.9322 3.14382 61.5002 3.14382C60.9402 3.14382 60.3802 3.34382 59.8202 3.74382C59.2762 4.12782 58.7802 4.73582 58.3322 5.56782L55.9802 3.43182C56.7002 2.34382 57.5482 1.50382 58.5242 0.911816C59.5162 0.303815 60.5482 -0.000185013 61.6202 -0.000185013C62.6602 -0.000185013 63.5962 0.215815 64.4282 0.647815C65.2602 1.06382 65.9162 1.63982 66.3962 2.37582C66.8922 3.11182 67.1402 3.93582 67.1402 4.84782C67.1402 5.42382 67.0202 5.99182 66.7802 6.55182C66.5402 7.09582 66.2042 7.61582 65.7722 8.11182C65.3562 8.59182 64.8602 9.01582 64.2842 9.38382C63.7082 9.75182 63.0762 10.0478 62.3882 10.2718L62.1002 11.5918H60.1082ZM59.2442 15.3358C59.2442 14.7438 59.4202 14.2638 59.7722 13.8958C60.1242 13.5118 60.5882 13.3198 61.1642 13.3198C61.7882 13.3198 62.2682 13.4958 62.6042 13.8478C62.9402 14.1998 63.1082 14.6958 63.1082 15.3358C63.1082 15.9438 62.9242 16.4398 62.5562 16.8238C62.2042 17.1918 61.7402 17.3758 61.1642 17.3758C60.5562 17.3758 60.0842 17.1998 59.7482 16.8478C59.4122 16.4958 59.2442 15.9918 59.2442 15.3358ZM70.6999 17.3038L69.2599 14.6638L77.5639 10.1518V11.8078L69.2599 7.31982L70.6999 4.67982L79.7959 9.88782V12.0958L70.6999 17.3038Z" fill="white"/>
</svg>
