<svg width="174" height="18" viewBox="0 0 174 18" fill="none" xmlns="http://www.w3.org/2000/svg">
<path d="M9.09585 17.3038L-0.00015226 12.0958V9.88782L9.09585 4.67982L10.5358 7.31982L2.23185 11.8078V10.1518L10.5358 14.6638L9.09585 17.3038ZM16.2332 11.5918L15.4892 8.35182C16.0172 8.22382 16.4972 8.07982 16.9292 7.91982C17.3772 7.74382 17.7772 7.55982 18.1292 7.36782C18.4812 7.17582 18.7772 6.95982 19.0172 6.71982C19.2732 6.47982 19.4652 6.21582 19.5932 5.92782C19.7372 5.62382 19.8092 5.30382 19.8092 4.96782C19.8092 4.61582 19.7132 4.30382 19.5212 4.03182C19.3292 3.74382 19.0732 3.52782 18.7532 3.38382C18.4332 3.22382 18.0572 3.14382 17.6252 3.14382C17.0652 3.14382 16.5052 3.34382 15.9452 3.74382C15.4012 4.12782 14.9052 4.73582 14.4572 5.56782L12.1052 3.43182C12.8252 2.34382 13.6732 1.50382 14.6492 0.911816C15.6412 0.303815 16.6732 -0.000185013 17.7452 -0.000185013C18.7852 -0.000185013 19.7212 0.215815 20.5532 0.647815C21.3852 1.06382 22.0412 1.63982 22.5212 2.37582C23.0172 3.11182 23.2652 3.93582 23.2652 4.84782C23.2652 5.42382 23.1452 5.99182 22.9052 6.55182C22.6652 7.09582 22.3292 7.61582 21.8972 8.11182C21.4812 8.59182 20.9852 9.01582 20.4092 9.38382C19.8332 9.75182 19.2012 10.0478 18.5132 10.2718L18.2252 11.5918H16.2332ZM15.3692 15.3358C15.3692 14.7438 15.5452 14.2638 15.8972 13.8958C16.2492 13.5118 16.7132 13.3198 17.2892 13.3198C17.9132 13.3198 18.3932 13.4958 18.7292 13.8478C19.0652 14.1998 19.2332 14.6958 19.2332 15.3358C19.2332 15.9438 19.0492 16.4398 18.6812 16.8238C18.3292 17.1918 17.8652 17.3758 17.2892 17.3758C16.6812 17.3758 16.2092 17.1998 15.8732 16.8478C15.5372 16.4958 15.3692 15.9918 15.3692 15.3358ZM26.4169 17.1118V0.311815H33.5449C34.5369 0.311815 35.4329 0.551816 36.2329 1.03182C37.0489 1.49582 37.6889 2.13582 38.1529 2.95182C38.6329 3.76782 38.8729 4.68782 38.8729 5.71182C38.8729 6.75182 38.6329 7.68782 38.1529 8.51982C37.6889 9.35182 37.0489 10.0158 36.2329 10.5118C35.4329 10.9918 34.5369 11.2318 33.5449 11.2318H30.0169V17.1118H26.4169ZM29.9689 7.99182H33.1369C33.5209 7.99182 33.8649 7.89582 34.1689 7.70382C34.4729 7.49582 34.7129 7.22382 34.8889 6.88782C35.0809 6.55182 35.1769 6.16782 35.1769 5.73582C35.1769 5.30382 35.0809 4.92782 34.8889 4.60782C34.7129 4.27182 34.4729 4.01582 34.1689 3.83982C33.8649 3.64782 33.5209 3.55182 33.1369 3.55182H29.9689V7.99182ZM52.6806 17.1118V0.311815H56.2806V17.1118H52.6806ZM42.0966 17.1118V0.311815H45.6966V17.1118H42.0966ZM43.5366 10.3678L43.5606 7.10382H54.5286V10.3678H43.5366ZM60.6591 17.1118V0.311815H67.7871C68.7791 0.311815 69.6751 0.551816 70.4751 1.03182C71.2911 1.49582 71.9311 2.13582 72.3951 2.95182C72.8751 3.76782 73.1151 4.68782 73.1151 5.71182C73.1151 6.75182 72.8751 7.68782 72.3951 8.51982C71.9311 9.35182 71.2911 10.0158 70.4751 10.5118C69.6751 10.9918 68.7791 11.2318 67.7871 11.2318H64.2591V17.1118H60.6591ZM64.2111 7.99182H67.3791C67.7631 7.99182 68.1071 7.89582 68.4111 7.70382C68.7151 7.49582 68.9551 7.22382 69.1311 6.88782C69.3231 6.55182 69.4191 6.16782 69.4191 5.73582C69.4191 5.30382 69.3231 4.92782 69.1311 4.60782C68.9551 4.27182 68.7151 4.01582 68.4111 3.83982C68.1071 3.64782 67.7631 3.55182 67.3791 3.55182H64.2111V7.99182ZM83.6982 17.1118V0.311815H90.9942C92.1142 0.311815 93.0582 0.479815 93.8262 0.815816C94.6102 1.13582 95.2022 1.60782 95.6022 2.23182C96.0022 2.85582 96.2022 3.59982 96.2022 4.46382C96.2022 5.42382 95.9622 6.22382 95.4822 6.86382C95.0022 7.50382 94.3142 7.94382 93.4182 8.18382L93.3942 7.70382C94.1302 7.87982 94.7782 8.16782 95.3382 8.56782C95.8982 8.96782 96.3302 9.46382 96.6342 10.0558C96.9382 10.6478 97.0902 11.3198 97.0902 12.0718C97.0902 12.9038 96.9542 13.6398 96.6822 14.2798C96.4102 14.9038 96.0102 15.4238 95.4822 15.8398C94.9542 16.2558 94.3302 16.5758 93.6102 16.7998C92.9062 17.0078 92.1142 17.1118 91.2342 17.1118H83.6982ZM87.1542 13.9918H91.0902C91.6022 13.9918 92.0342 13.9198 92.3862 13.7758C92.7542 13.6158 93.0342 13.3758 93.2262 13.0558C93.4182 12.7358 93.5142 12.3598 93.5142 11.9278C93.5142 11.5118 93.4102 11.1598 93.2022 10.8718C92.9942 10.5838 92.6982 10.3678 92.3142 10.2238C91.9462 10.0638 91.4982 9.98382 90.9702 9.98382H87.1542V13.9918ZM87.1542 7.12782H90.5622C90.9942 7.12782 91.3702 7.04782 91.6902 6.88782C92.0102 6.72782 92.2502 6.51182 92.4102 6.23982C92.5862 5.96782 92.6742 5.64782 92.6742 5.27982C92.6742 4.68782 92.4822 4.23182 92.0982 3.91182C91.7142 3.59182 91.1382 3.43182 90.3702 3.43182H87.1542V7.12782ZM99.4262 11.8078V8.63982H107.274V11.8078H99.4262ZM114.202 17.1118V3.55182H109.306V0.311815H122.842V3.55182H117.802V17.1118H114.202ZM125.815 17.1118V0.311815H132.703C133.935 0.311815 135.047 0.519815 136.039 0.935816C137.047 1.33582 137.911 1.91182 138.631 2.66382C139.367 3.39982 139.927 4.27982 140.311 5.30382C140.695 6.32782 140.887 7.46382 140.887 8.71182C140.887 9.94382 140.695 11.0798 140.311 12.1198C139.927 13.1438 139.375 14.0318 138.655 14.7838C137.935 15.5198 137.071 16.0958 136.063 16.5118C135.055 16.9118 133.935 17.1118 132.703 17.1118H125.815ZM129.415 14.4958L129.031 13.8718H132.583C133.303 13.8718 133.951 13.7518 134.527 13.5118C135.103 13.2558 135.591 12.9118 135.991 12.4798C136.407 12.0318 136.719 11.4878 136.927 10.8478C137.135 10.2078 137.239 9.49582 137.239 8.71182C137.239 7.92782 137.135 7.22382 136.927 6.59982C136.719 5.95982 136.407 5.41582 135.991 4.96782C135.591 4.51982 135.103 4.17582 134.527 3.93582C133.951 3.67982 133.303 3.55182 132.583 3.55182H128.959L129.415 2.97582V14.4958ZM153.999 11.5918L153.255 8.35182C153.783 8.22382 154.263 8.07982 154.695 7.91982C155.143 7.74382 155.543 7.55982 155.895 7.36782C156.247 7.17582 156.543 6.95982 156.783 6.71982C157.039 6.47982 157.231 6.21582 157.359 5.92782C157.503 5.62382 157.575 5.30382 157.575 4.96782C157.575 4.61582 157.479 4.30382 157.287 4.03182C157.095 3.74382 156.839 3.52782 156.519 3.38382C156.199 3.22382 155.823 3.14382 155.391 3.14382C154.831 3.14382 154.271 3.34382 153.711 3.74382C153.167 4.12782 152.671 4.73582 152.223 5.56782L149.871 3.43182C150.591 2.34382 151.439 1.50382 152.415 0.911816C153.407 0.303815 154.439 -0.000185013 155.511 -0.000185013C156.551 -0.000185013 157.487 0.215815 158.319 0.647815C159.151 1.06382 159.807 1.63982 160.287 2.37582C160.783 3.11182 161.031 3.93582 161.031 4.84782C161.031 5.42382 160.911 5.99182 160.671 6.55182C160.431 7.09582 160.095 7.61582 159.663 8.11182C159.247 8.59182 158.751 9.01582 158.175 9.38382C157.599 9.75182 156.967 10.0478 156.279 10.2718L155.991 11.5918H153.999ZM153.135 15.3358C153.135 14.7438 153.311 14.2638 153.663 13.8958C154.015 13.5118 154.479 13.3198 155.055 13.3198C155.679 13.3198 156.159 13.4958 156.495 13.8478C156.831 14.1998 156.999 14.6958 156.999 15.3358C156.999 15.9438 156.815 16.4398 156.447 16.8238C156.095 17.1918 155.631 17.3758 155.055 17.3758C154.447 17.3758 153.975 17.1998 153.639 16.8478C153.303 16.4958 153.135 15.9918 153.135 15.3358ZM164.591 17.3038L163.151 14.6638L171.455 10.1518V11.8078L163.151 7.31982L164.591 4.67982L173.687 9.88782V12.0958L164.591 17.3038Z" fill="white"/>
</svg>
