<svg width="174" height="18" viewBox="0 0 174 18" fill="none" xmlns="http://www.w3.org/2000/svg">
<path d="M9.31997 17.692L0.223969 12.484V10.276L9.31997 5.068L10.76 7.708L2.45597 12.196V10.54L10.76 15.052L9.31997 17.692ZM16.4573 11.98L15.7133 8.74C16.2413 8.612 16.7213 8.468 17.1533 8.308C17.6013 8.132 18.0013 7.948 18.3533 7.756C18.7053 7.564 19.0013 7.348 19.2413 7.108C19.4973 6.868 19.6893 6.604 19.8173 6.316C19.9613 6.012 20.0333 5.692 20.0333 5.356C20.0333 5.004 19.9373 4.692 19.7453 4.42C19.5533 4.132 19.2973 3.916 18.9773 3.772C18.6573 3.612 18.2813 3.532 17.8493 3.532C17.2893 3.532 16.7293 3.732 16.1693 4.132C15.6253 4.516 15.1293 5.124 14.6813 5.956L12.3293 3.82C13.0493 2.732 13.8973 1.892 14.8733 1.3C15.8653 0.691999 16.8973 0.387999 17.9693 0.387999C19.0093 0.387999 19.9453 0.603999 20.7773 1.036C21.6093 1.452 22.2653 2.028 22.7453 2.764C23.2413 3.5 23.4893 4.324 23.4893 5.236C23.4893 5.812 23.3693 6.38 23.1293 6.94C22.8893 7.484 22.5533 8.004 22.1213 8.5C21.7053 8.98 21.2093 9.404 20.6333 9.772C20.0573 10.14 19.4253 10.436 18.7373 10.66L18.4493 11.98H16.4573ZM15.5933 15.724C15.5933 15.132 15.7693 14.652 16.1213 14.284C16.4733 13.9 16.9373 13.708 17.5133 13.708C18.1373 13.708 18.6173 13.884 18.9533 14.236C19.2893 14.588 19.4573 15.084 19.4573 15.724C19.4573 16.332 19.2733 16.828 18.9053 17.212C18.5533 17.58 18.0893 17.764 17.5133 17.764C16.9053 17.764 16.4333 17.588 16.0973 17.236C15.7613 16.884 15.5933 16.38 15.5933 15.724ZM26.641 17.5V0.699999H33.769C34.761 0.699999 35.657 0.939999 36.457 1.42C37.273 1.884 37.913 2.524 38.377 3.34C38.857 4.156 39.097 5.076 39.097 6.1C39.097 7.14 38.857 8.076 38.377 8.908C37.913 9.74 37.273 10.404 36.457 10.9C35.657 11.38 34.761 11.62 33.769 11.62H30.241V17.5H26.641ZM30.193 8.38H33.361C33.745 8.38 34.089 8.284 34.393 8.092C34.697 7.884 34.937 7.612 35.113 7.276C35.305 6.94 35.401 6.556 35.401 6.124C35.401 5.692 35.305 5.316 35.113 4.996C34.937 4.66 34.697 4.404 34.393 4.228C34.089 4.036 33.745 3.94 33.361 3.94H30.193V8.38ZM52.9047 17.5V0.699999H56.5047V17.5H52.9047ZM42.3207 17.5V0.699999H45.9207V17.5H42.3207ZM43.7607 10.756L43.7847 7.492H54.7527V10.756H43.7607ZM60.8832 17.5V0.699999H68.0112C69.0032 0.699999 69.8992 0.939999 70.6992 1.42C71.5152 1.884 72.1552 2.524 72.6192 3.34C73.0992 4.156 73.3392 5.076 73.3392 6.1C73.3392 7.14 73.0992 8.076 72.6192 8.908C72.1552 9.74 71.5152 10.404 70.6992 10.9C69.8992 11.38 69.0032 11.62 68.0112 11.62H64.4832V17.5H60.8832ZM64.4352 8.38H67.6032C67.9872 8.38 68.3312 8.284 68.6352 8.092C68.9392 7.884 69.1792 7.612 69.3552 7.276C69.5472 6.94 69.6432 6.556 69.6432 6.124C69.6432 5.692 69.5472 5.316 69.3552 4.996C69.1792 4.66 68.9392 4.404 68.6352 4.228C68.3312 4.036 67.9872 3.94 67.6032 3.94H64.4352V8.38ZM83.9223 17.5V0.699999H91.2183C92.3383 0.699999 93.2823 0.867999 94.0503 1.204C94.8343 1.524 95.4263 1.996 95.8263 2.62C96.2263 3.244 96.4263 3.988 96.4263 4.852C96.4263 5.812 96.1863 6.612 95.7063 7.252C95.2263 7.892 94.5383 8.332 93.6423 8.572L93.6183 8.092C94.3543 8.268 95.0023 8.556 95.5623 8.956C96.1223 9.356 96.5543 9.852 96.8583 10.444C97.1623 11.036 97.3143 11.708 97.3143 12.46C97.3143 13.292 97.1783 14.028 96.9063 14.668C96.6343 15.292 96.2343 15.812 95.7063 16.228C95.1783 16.644 94.5543 16.964 93.8343 17.188C93.1303 17.396 92.3383 17.5 91.4583 17.5H83.9223ZM87.3783 14.38H91.3143C91.8263 14.38 92.2583 14.308 92.6103 14.164C92.9783 14.004 93.2583 13.764 93.4503 13.444C93.6423 13.124 93.7383 12.748 93.7383 12.316C93.7383 11.9 93.6343 11.548 93.4263 11.26C93.2183 10.972 92.9223 10.756 92.5383 10.612C92.1703 10.452 91.7223 10.372 91.1943 10.372H87.3783V14.38ZM87.3783 7.516H90.7863C91.2183 7.516 91.5943 7.436 91.9143 7.276C92.2343 7.116 92.4743 6.9 92.6343 6.628C92.8103 6.356 92.8983 6.036 92.8983 5.668C92.8983 5.076 92.7063 4.62 92.3223 4.3C91.9383 3.98 91.3623 3.82 90.5943 3.82H87.3783V7.516ZM99.6503 12.196V9.028H107.498V12.196H99.6503ZM114.426 17.5V3.94H109.53V0.699999H123.066V3.94H118.026V17.5H114.426ZM126.039 17.5V0.699999H132.927C134.159 0.699999 135.271 0.907999 136.263 1.324C137.271 1.724 138.135 2.3 138.855 3.052C139.591 3.788 140.151 4.668 140.535 5.692C140.919 6.716 141.111 7.852 141.111 9.1C141.111 10.332 140.919 11.468 140.535 12.508C140.151 13.532 139.599 14.42 138.879 15.172C138.159 15.908 137.295 16.484 136.287 16.9C135.279 17.3 134.159 17.5 132.927 17.5H126.039ZM129.639 14.884L129.255 14.26H132.807C133.527 14.26 134.175 14.14 134.751 13.9C135.327 13.644 135.815 13.3 136.215 12.868C136.631 12.42 136.943 11.876 137.151 11.236C137.359 10.596 137.463 9.884 137.463 9.1C137.463 8.316 137.359 7.612 137.151 6.988C136.943 6.348 136.631 5.804 136.215 5.356C135.815 4.908 135.327 4.564 134.751 4.324C134.175 4.068 133.527 3.94 132.807 3.94H129.183L129.639 3.364V14.884ZM154.223 11.98L153.479 8.74C154.007 8.612 154.487 8.468 154.919 8.308C155.367 8.132 155.767 7.948 156.119 7.756C156.471 7.564 156.767 7.348 157.007 7.108C157.263 6.868 157.455 6.604 157.583 6.316C157.727 6.012 157.799 5.692 157.799 5.356C157.799 5.004 157.703 4.692 157.511 4.42C157.319 4.132 157.063 3.916 156.743 3.772C156.423 3.612 156.047 3.532 155.615 3.532C155.055 3.532 154.495 3.732 153.935 4.132C153.391 4.516 152.895 5.124 152.447 5.956L150.095 3.82C150.815 2.732 151.663 1.892 152.639 1.3C153.631 0.691999 154.663 0.387999 155.735 0.387999C156.775 0.387999 157.711 0.603999 158.543 1.036C159.375 1.452 160.031 2.028 160.511 2.764C161.007 3.5 161.255 4.324 161.255 5.236C161.255 5.812 161.135 6.38 160.895 6.94C160.655 7.484 160.319 8.004 159.887 8.5C159.471 8.98 158.975 9.404 158.399 9.772C157.823 10.14 157.191 10.436 156.503 10.66L156.215 11.98H154.223ZM153.359 15.724C153.359 15.132 153.535 14.652 153.887 14.284C154.239 13.9 154.703 13.708 155.279 13.708C155.903 13.708 156.383 13.884 156.719 14.236C157.055 14.588 157.223 15.084 157.223 15.724C157.223 16.332 157.039 16.828 156.671 17.212C156.319 17.58 155.855 17.764 155.279 17.764C154.671 17.764 154.199 17.588 153.863 17.236C153.527 16.884 153.359 16.38 153.359 15.724ZM164.815 17.692L163.375 15.052L171.679 10.54V12.196L163.375 7.708L164.815 5.068L173.911 10.276V12.484L164.815 17.692Z" fill="white"/>
</svg>
