<svg width="24" height="24" viewBox="0 0 24 24" fill="none" xmlns="http://www.w3.org/2000/svg">
<path fill-rule="evenodd" clip-rule="evenodd" d="M5 14.9971C5.19891 14.9971 5.38968 15.0761 5.53033 15.2167C5.67098 15.3574 5.75 15.5482 5.75 15.7471V18.0001C5.75 18.1381 5.862 18.2501 6 18.2501H18C18.0663 18.2501 18.1299 18.2237 18.1768 18.1768C18.2237 18.13 18.25 18.0664 18.25 18.0001V15.7471C18.25 15.5482 18.329 15.3574 18.4697 15.2167C18.6103 15.0761 18.8011 14.9971 19 14.9971C19.1989 14.9971 19.3897 15.0761 19.5303 15.2167C19.671 15.3574 19.75 15.5482 19.75 15.7471V18.0001C19.75 18.4642 19.5656 18.9093 19.2374 19.2375C18.9092 19.5657 18.4641 19.7501 18 19.7501H6C5.53587 19.7501 5.09075 19.5657 4.76256 19.2375C4.43437 18.9093 4.25 18.4642 4.25 18.0001V15.7471C4.25 15.5482 4.32902 15.3574 4.46967 15.2167C4.61032 15.0761 4.80109 14.9971 5 14.9971Z" fill="black"/>
<path fill-rule="evenodd" clip-rule="evenodd" d="M12.2021 5.58008C12.4011 5.58008 12.5918 5.6591 12.7325 5.79975C12.8731 5.9404 12.9521 6.13117 12.9521 6.33008V14.4161C12.9521 14.615 12.8731 14.8058 12.7325 14.9464C12.5918 15.0871 12.4011 15.1661 12.2021 15.1661C12.0032 15.1661 11.8125 15.0871 11.6718 14.9464C11.5312 14.8058 11.4521 14.615 11.4521 14.4161V6.33108C11.4521 6.13217 11.5312 5.9414 11.6718 5.80075C11.8125 5.6601 12.0032 5.58008 12.2021 5.58008Z" fill="black"/>
<path fill-rule="evenodd" clip-rule="evenodd" d="M11.6779 4.4639C11.818 4.32708 12.0061 4.25049 12.2019 4.25049C12.3978 4.25049 12.5858 4.32708 12.7259 4.4639L16.0699 7.7299C16.2093 7.86952 16.288 8.05841 16.2891 8.25566C16.2901 8.45291 16.2134 8.64264 16.0756 8.78375C15.9378 8.92487 15.7499 9.006 15.5527 9.00959C15.3555 9.01317 15.1648 8.93892 15.0219 8.8029L12.2019 6.0489L9.38193 8.8029C9.31178 8.87319 9.22838 8.92884 9.13656 8.96664C9.04473 9.00443 8.94632 9.02362 8.84702 9.02308C8.74773 9.02255 8.64953 9.0023 8.55812 8.96351C8.46671 8.92473 8.38391 8.86817 8.31453 8.79714C8.24515 8.7261 8.19056 8.64199 8.15394 8.5497C8.11732 8.4574 8.09939 8.35875 8.1012 8.25947C8.103 8.16019 8.1245 8.06225 8.16445 7.97135C8.20441 7.88044 8.26201 7.79837 8.33393 7.7299L11.6779 4.4639Z" fill="black"/>
</svg>
