<svg width="24" height="24" viewBox="0 0 24 24" fill="none" xmlns="http://www.w3.org/2000/svg">
<path d="M2.55 11.85C2.62879 11.9091 2.71845 11.9521 2.81386 11.9765C2.90927 12.001 3.00856 12.0064 3.10607 11.9924C3.20357 11.9785 3.29737 11.9455 3.38212 11.8953C3.46687 11.8452 3.54091 11.7788 3.6 11.7C4.05409 11.0945 4.64291 10.6031 5.31983 10.2647C5.99675 9.92619 6.74318 9.74999 7.5 9.74999C8.25682 9.74999 9.00325 9.92619 9.68017 10.2647C10.3571 10.6031 10.9459 11.0945 11.4 11.7C11.5195 11.859 11.6972 11.964 11.8941 11.9919C12.091 12.0199 12.291 11.9685 12.45 11.849C12.5067 11.8069 12.5569 11.7567 12.5991 11.7C13.0532 11.0945 13.642 10.6031 14.3189 10.2647C14.9958 9.92619 15.7422 9.74999 16.4991 9.74999C17.2559 9.74999 18.0023 9.92619 18.6792 10.2647C19.3561 10.6031 19.945 11.0945 20.3991 11.7C20.5185 11.8591 20.6963 11.9643 20.8933 11.9923C21.0903 12.0204 21.2904 11.969 21.4495 11.8495C21.6087 11.73 21.7138 11.5523 21.7419 11.3553C21.7699 11.1583 21.7185 10.9582 21.5991 10.799C20.9352 9.90905 20.0499 9.20833 19.0312 8.76655C19.5897 8.25668 19.981 7.58988 20.1537 6.85367C20.3264 6.11746 20.2725 5.34623 19.9991 4.64119C19.7256 3.93616 19.2454 3.33026 18.6215 2.90302C17.9975 2.47578 17.259 2.24716 16.5028 2.24716C15.7466 2.24716 15.0081 2.47578 14.3841 2.90302C13.7602 3.33026 13.28 3.93616 13.0066 4.64119C12.7331 5.34623 12.6792 6.11746 12.8519 6.85367C13.0247 7.58988 13.4159 8.25668 13.9744 8.76655C13.2389 9.08466 12.5707 9.53996 12.0056 10.1081C11.4405 9.53996 10.7724 9.08466 10.0369 8.76655C10.5953 8.25668 10.9866 7.58988 11.1593 6.85367C11.332 6.11746 11.2781 5.34623 11.0047 4.64119C10.7313 3.93616 10.2511 3.33026 9.62712 2.90302C9.00317 2.47578 8.26464 2.24716 7.50844 2.24716C6.75224 2.24716 6.0137 2.47578 5.38976 2.90302C4.76581 3.33026 4.28561 3.93616 4.01218 4.64119C3.73874 5.34623 3.68484 6.11746 3.85756 6.85367C4.03028 7.58988 4.42154 8.25668 4.98 8.76655C3.95691 9.20696 3.06728 9.90812 2.4 10.8C2.34091 10.8788 2.29791 10.9684 2.27346 11.0639C2.24902 11.1593 2.24361 11.2586 2.25754 11.3561C2.27147 11.4536 2.30446 11.5474 2.35464 11.6321C2.40483 11.7169 2.47121 11.7909 2.55 11.85ZM16.5 3.74999C16.945 3.74999 17.38 3.88195 17.75 4.12918C18.12 4.37641 18.4084 4.72781 18.5787 5.13895C18.749 5.55008 18.7936 6.00248 18.7068 6.43894C18.62 6.8754 18.4057 7.27631 18.091 7.59098C17.7763 7.90565 17.3754 8.11994 16.939 8.20675C16.5025 8.29357 16.0501 8.24901 15.639 8.07872C15.2278 7.90842 14.8764 7.62003 14.6292 7.25002C14.382 6.88001 14.25 6.44499 14.25 5.99999C14.25 5.40325 14.4871 4.83095 14.909 4.409C15.331 3.98704 15.9033 3.74999 16.5 3.74999ZM7.5 3.74999C7.94501 3.74999 8.38002 3.88195 8.75003 4.12918C9.12004 4.37641 9.40843 4.72781 9.57873 5.13895C9.74903 5.55008 9.79358 6.00248 9.70677 6.43894C9.61995 6.8754 9.40566 7.27631 9.09099 7.59098C8.77632 7.90565 8.37541 8.11994 7.93895 8.20675C7.5025 8.29357 7.0501 8.24901 6.63896 8.07872C6.22783 7.90842 5.87643 7.62003 5.62919 7.25002C5.38196 6.88001 5.25 6.44499 5.25 5.99999C5.25 5.40325 5.48705 4.83095 5.90901 4.409C6.33097 3.98704 6.90326 3.74999 7.5 3.74999ZM19.0312 18.5165C19.5897 18.0067 19.981 17.3399 20.1537 16.6037C20.3264 15.8675 20.2725 15.0962 19.9991 14.3912C19.7256 13.6862 19.2454 13.0803 18.6215 12.653C17.9975 12.2258 17.259 11.9972 16.5028 11.9972C15.7466 11.9972 15.0081 12.2258 14.3841 12.653C13.7602 13.0803 13.28 13.6862 13.0066 14.3912C12.7331 15.0962 12.6792 15.8675 12.8519 16.6037C13.0247 17.3399 13.4159 18.0067 13.9744 18.5165C13.2389 18.8347 12.5707 19.29 12.0056 19.8581C11.4405 19.29 10.7724 18.8347 10.0369 18.5165C10.5953 18.0067 10.9866 17.3399 11.1593 16.6037C11.332 15.8675 11.2781 15.0962 11.0047 14.3912C10.7313 13.6862 10.2511 13.0803 9.62712 12.653C9.00317 12.2258 8.26464 11.9972 7.50844 11.9972C6.75224 11.9972 6.0137 12.2258 5.38976 12.653C4.76581 13.0803 4.28561 13.6862 4.01218 14.3912C3.73874 15.0962 3.68484 15.8675 3.85756 16.6037C4.03028 17.3399 4.42154 18.0067 4.98 18.5165C3.95691 18.957 3.06728 19.6581 2.4 20.55C2.34091 20.6288 2.29791 20.7184 2.27346 20.8139C2.24902 20.9093 2.24361 21.0086 2.25754 21.1061C2.27147 21.2036 2.30446 21.2974 2.35464 21.3821C2.40483 21.4669 2.47121 21.5409 2.55 21.6C2.62879 21.6591 2.71845 21.7021 2.81386 21.7265C2.90927 21.751 3.00856 21.7564 3.10607 21.7424C3.20357 21.7285 3.29737 21.6955 3.38212 21.6453C3.46687 21.5952 3.54091 21.5288 3.6 21.45C4.05409 20.8445 4.64291 20.3531 5.31983 20.0147C5.99675 19.6762 6.74318 19.5 7.5 19.5C8.25682 19.5 9.00325 19.6762 9.68017 20.0147C10.3571 20.3531 10.9459 20.8445 11.4 21.45C11.5195 21.609 11.6972 21.714 11.8941 21.7419C12.091 21.7699 12.291 21.7185 12.45 21.599C12.5067 21.5569 12.5569 21.5067 12.5991 21.45C13.0532 20.8445 13.642 20.3531 14.3189 20.0147C14.9958 19.6762 15.7422 19.5 16.4991 19.5C17.2559 19.5 18.0023 19.6762 18.6792 20.0147C19.3561 20.3531 19.945 20.8445 20.3991 21.45C20.5185 21.6091 20.6963 21.7143 20.8933 21.7423C21.0903 21.7704 21.2904 21.719 21.4495 21.5995C21.6087 21.48 21.7138 21.3023 21.7419 21.1053C21.7699 20.9083 21.7185 20.7082 21.5991 20.549C20.9352 19.659 20.0499 18.9583 19.0312 18.5165ZM7.5 13.5C7.94501 13.5 8.38002 13.6319 8.75003 13.8792C9.12004 14.1264 9.40843 14.4778 9.57873 14.8889C9.74903 15.3001 9.79358 15.7525 9.70677 16.1889C9.61995 16.6254 9.40566 17.0263 9.09099 17.341C8.77632 17.6556 8.37541 17.8699 7.93895 17.9568C7.5025 18.0436 7.0501 17.999 6.63896 17.8287C6.22783 17.6584 5.87643 17.37 5.62919 17C5.38196 16.63 5.25 16.195 5.25 15.75C5.25 15.1532 5.48705 14.581 5.90901 14.159C6.33097 13.737 6.90326 13.5 7.5 13.5ZM16.5 13.5C16.945 13.5 17.38 13.6319 17.75 13.8792C18.12 14.1264 18.4084 14.4778 18.5787 14.8889C18.749 15.3001 18.7936 15.7525 18.7068 16.1889C18.62 16.6254 18.4057 17.0263 18.091 17.341C17.7763 17.6556 17.3754 17.8699 16.939 17.9568C16.5025 18.0436 16.0501 17.999 15.639 17.8287C15.2278 17.6584 14.8764 17.37 14.6292 17C14.382 16.63 14.25 16.195 14.25 15.75C14.25 15.1532 14.4871 14.581 14.909 14.159C15.331 13.737 15.9033 13.5 16.5 13.5Z" fill="white"/>
</svg>
